<svg xmlns="http://www.w3.org/2000/svg" version="1.0" width="1469.000000" height="1069.000000" preserveAspectRatio="xMidYMid meet"><rect id="backgroundrect" width="100%" height="100%" x="0" y="0" fill="none" stroke="none"/>
<metadata>
Created by potrace 1.16, written by Peter Selinger 2001-2019
</metadata>

<g class="currentLayer" style=""><title>Layer 1</title><g transform="translate(0,1069) scale(0.10000000149011612,-0.10000000149011612) " fill="#e76767" stroke="none" id="svg_1" class="selected" fill-opacity="1" opacity="1">
<path d="M4032.3580603432656,8506.563786909945 c-554.1136006420228,-90.06941846602241 -1112.9981670952313,-311.8369782184978 -1659.6145357482478,-660.0044781711895 c-59.29628936759653,-37.84429347311866 -118.59257873519306,-77.95924455462445 -129.4976434464752,-87.7987608576353 c-3.407832722275664,-3.027543477849493 -38.16772648948742,-28.004777170107808 -77.01701952342998,-54.49578260129087 c-62.02255554541705,-43.89938042881765 -106.32438093500069,-77.95924455462445 -210.60406223663597,-161.97357606494788 c-25.89952868929504,-21.192804344946456 -68.15665444551325,-88.55564672709765 -119.27414527964821,-189.9783532350557 c-9.541931622371855,-18.92214673655933 -40.212426122852825,-80.98678803247394 -68.8382209899684,-137.75322824215198 c-53.162190467500345,-105.20713585526988 -186.0676666362512,-402.66328255398264 -226.280092759104,-505.5997608008654 c-12.268197800192388,-31.032320647957295 -38.16772648948742,-97.63827716064615 -57.933156278686276,-147.5927445451628 c-158.80500485804592,-402.66328255398264 -340.78327222756633,-977.8965433453862 -453.2417520626632,-1434.2987226311973 c-13.631330889102651,-56.009554340215615 -32.03362758939123,-130.94125541699057 -40.893992667307955,-166.51489128172213 c-94.73774967926343,-381.4704782090361 -218.10129422564242,-1037.690527032914 -271.94505123759785,-1445.652010673133 c-6.134098900096194,-43.89938042881765 -17.039163611378314,-123.37239672236684 -24.536395600384775,-177.1112934541953 c-48.391224656314414,-346.65372821376695 -122.00041145746872,-1150.4665215828074 -122.68197800192385,-1341.9586465567882 l0,-38.60117934258104 l145.17367396894323,-162.73046193441024 c179.25200119169986,-201.33164127699132 253.54275453730932,-273.99268474537917 430.75005609564374,-422.34231516000426 c445.7445200736566,-373.14473364495 1042.7968130163529,-666.8164509963509 1649.391037581421,-812.1385379331265 c203.78839679208465,-48.44069564559189 453.92331860711823,-89.31253259656005 606.594224565068,-99.1520488995709 c37.4861599450323,-2.2706576083871193 79.74328570125051,-6.055086955698986 93.37461659035316,-7.5688586946237315 l25.21796214483991,-3.7844293473118658 l181.9782673695204,269.45136952860486 c100.19028203490447,148.34963041462515 181.9782673695204,273.99268474537917 182.65983391397552,280.04777170107815 c0.6815665444551331,7.5688586946237315 -23.173262511474512,21.192804344946456 -70.88292062333379,40.87183695096816 c-211.28562878109105,88.55564672709765 -338.7385725942009,150.62028802301228 -514.5827410636251,250.52922279204554 c-173.7994688360588,98.39516303010852 -316.2468766271815,189.9783532350557 -460.0574175072145,296.6992608292503 c-68.8382209899684,51.46823912344138 -214.69346150336673,166.51489128172213 -227.64322584801425,180.13883693204482 c-5.452532355641061,5.298201086236615 79.74328570125051,158.189146717636 88.60365077916722,158.189146717636 c1.3631330889102653,0 55.206890100865735,-28.761663039570184 119.27414527964821,-64.33529890430172 c64.06725517878246,-35.57363586473154 132.22390962429574,-71.90415759892547 151.3077728690394,-80.22990216301156 c19.08386324474371,-8.325744564086104 51.79905737859008,-24.220347822795944 72.92762025669919,-34.81674999526917 c156.07873868022537,-79.47301629354918 436.20258845128484,-190.73523910451806 664.5273808437543,-263.39628257290593 c582.7393955091384,-184.68015214881905 1162.752524840456,-268.69448365914246 1864.0844990847877,-268.69448365914246 c693.1531757108698,0.7568858694623737 1280.6635370311942,86.28498911871056 1860.6766663625124,272.4789130064544 c235.82202438147584,75.68858694623732 492.77261164106085,177.8681793236577 650.8960499546515,258.0980814866693 c22.491695967019375,11.353288041935599 57.933156278686276,28.004777170107808 78.38015261234024,37.08740760365629 c20.446996333653978,9.082630433548477 43.62025884512849,20.43591847548408 51.11749083413494,25.73411956172069 c29.988927956025837,20.43591847548408 36.804593400577154,20.43591847548408 48.391224656314414,-4.541315216774239 c6.134098900096194,-12.867059780860345 23.173262511474512,-40.87183695096816 38.16772648948742,-62.06464129591459 c26.581095233750172,-37.08740760365629 53.162190467500345,-87.7987608576353 53.162190467500345,-101.42270650795803 c0,-12.110173911397972 -175.8441684694242,-137.75322824215198 -321.6994089828226,-230.8501901860239 c-213.3303284144565,-136.99634237268958 -556.1583002753882,-311.8369782184978 -750.404765445101,-382.9842499479609 l-45.66495847849388,-17.408374997634585 l14.994463978012918,-23.46346195333357 c8.860365077916724,-13.623945650322717 93.37461659035316,-139.26699998107668 188.79393281407172,-280.04777170107815 l173.11790229160368,-256.5843097477445 l27.944228322660436,4.541315216774239 c14.994463978012918,2.2706576083871193 68.15665444551325,7.5688586946237315 116.54787910182765,12.110173911397972 c493.45417818551607,43.89938042881765 1059.154410083276,208.900499971615 1516.4855614126702,442.7782336354883 c105.64281439054552,53.738896731828504 105.64281439054552,53.738896731828504 224.91695967019376,124.88616846129159 c333.28604023855985,199.0609836686042 617.49928927635,430.66805972409037 875.1314430803902,714.5002607724804 c156.07873868022537,171.05620649849635 196.2911648030782,222.5244456219377 191.52019899189224,246.7447934447337 c-2.0446996333653975,10.596402172473228 -8.17879853346159,92.34007607440952 -13.631330889102651,181.65260867096958 c-31.3520610449361,514.6823912344138 -94.73774967926343,1088.4018802868927 -177.20730155833445,1612.1669019548551 c-33.396760678301504,214.95558692731402 -102.23498166826988,591.8847499195759 -132.90547616875082,730.3948640311902 c-3.407832722275664,16.65148912817221 -20.446996333653978,95.36761955225903 -37.4861599450323,174.08374997634584 c-17.039163611378314,79.47301629354918 -44.98339193403875,202.08852714645366 -62.02255554541705,272.4789130064544 c-29.3073614115707,121.85862498344208 -43.62025884512849,177.1112934541953 -102.23498166826988,399.6357390761331 c-88.60365077916722,338.32798364968085 -265.1293857930466,877.987608576353 -396.6717288728872,1212.5311628787217 c-126.77137726865466,323.1902662604333 -286.2579486711557,670.6008803436627 -402.8058277729833,877.987608576353 c-42.25712575621822,74.17481520731258 -49.07279120076955,80.22990216301156 -235.82202438147584,218.74001627462587 c-464.1468167739452,343.6261847359175 -1018.2604174159682,619.8895270896837 -1513.0777286903945,753.8583259845237 c-171.07320265823827,46.17003803720476 -378.2694321725986,85.52810324924818 -500.95141017452244,95.36761955225903 l-64.7488217232376,4.541315216774239 l-25.89952868929504,-59.037097818065114 c-14.312897433557781,-33.30297825634442 -42.93869230067335,-93.0969619438719 -64.06725517878246,-133.21191302537767 c-42.93869230067335,-84.77121737978582 -92.0114835014429,-210.41427171053977 -124.72667763528924,-318.6489510436591 c-11.586631255737256,-40.87183695096816 -25.89952868929504,-76.44547281569969 -30.670494500480963,-77.95924455462445 c-4.770965811185928,-2.2706576083871193 -64.7488217232376,4.541315216774239 -133.58704271320602,15.137717389247467 c-142.4474077911227,21.949690214408825 -356.45930275003434,44.65626629828002 -551.3873344642022,58.28021194860275 c-169.0285030248729,12.110173911397972 -685.6559437218633,12.110173911397972 -855.3660132911914,0.7568858694623737 c-212.64876187000138,-15.137717389247467 -515.9458741525353,-49.19758151505426 -658.393281943658,-74.17481520731258 c-23.85482905592964,-3.7844293473118658 -24.536395600384775,-3.027543477849493 -36.804593400577154,32.54609238688205 c-6.134098900096194,19.679032606021707 -22.491695967019375,63.57841303483934 -35.441460311666894,96.88139129118377 c-12.94976434464752,33.30297825634442 -32.71519413384636,87.7987608576353 -44.30182538958361,121.1017391139797 c-10.905064711282122,33.30297825634442 -34.759893767211764,86.28498911871056 -53.162190467500345,117.31730976666785 c-17.720730155833447,31.032320647957295 -49.07279120076955,93.0969619438719 -68.8382209899684,138.51011411161434 l-36.804593400577154,80.98678803247394 l-34.07832722275663,-0.7568858694623737 c-18.402296700288577,0 -81.78798533461591,-8.325744564086104 -139.7211416133022,-18.165260867096958 zm174.48103538051396,-3524.0606082168097 c196.2911648030782,-38.60117934258104 372.8168998169576,-168.78554889010925 505.7223759857084,-373.90161951441235 c119.95571182410335,-185.43703801828147 184.0229670028858,-457.9159510247358 165.6206703025972,-705.4176303389319 c-14.312897433557781,-195.2765543212923 -62.02255554541705,-355.7363586473154 -153.35247250240482,-516.9530488428011 c-74.9723198900646,-132.45502715591533 -199.69899752535383,-256.5843097477445 -326.47037479400853,-324.7040379993581 c-199.01743098089872,-107.47779346365701 -416.437158662086,-108.23467933311937 -614.7730230985296,-1.5137717389247467 c-132.90547616875082,71.14727172946309 -249.45335527057847,187.70769562666857 -333.96760678301496,332.27289669398186 c-69.51978753442353,121.1017391139797 -116.54787910182765,260.3687390950564 -140.4027081577573,419.3147716821548 c-36.804593400577154,250.52922279204554 9.541931622371855,527.5494510152741 125.4082441797444,740.2343803342011 c119.95571182410335,221.76755975247536 299.20771301580317,371.6309619060253 505.7223759857084,423.856086898929 c62.7041220898722,15.894603258709836 202.42526370317438,19.679032606021707 266.49251888195687,6.811972825161359 zm2979.8089323578397,-6.811972825161359 c385.76666416160504,-87.04187498817292 665.2089473882094,-534.3614238404355 646.8066506879209,-1034.662983555064 c-13.631330889102651,-388.2824510341975 -201.06213061426408,-728.8810922922654 -483.23068001868904,-880.25826618474 c-104.27968130163529,-56.009554340215615 -190.15706590298197,-77.95924455462445 -305.34181191589937,-77.95924455462445 c-101.55341512381476,0 -154.71560559131507,10.596402172473228 -244.68238945939262,46.92692390666714 c-109.73221365727636,44.65626629828002 -190.15706590298197,103.69336411634514 -283.53168249333515,208.1436141021526 c-160.8497044914113,180.13883693204482 -250.13492181503366,414.77345646538055 -265.81095233750165,697.8487716443082 c-10.223498166826989,175.5975217152706 31.3520610449361,392.82376625097174 105.64281439054552,554.7973423159198 c62.7041220898722,136.99634237268958 149.9446397801292,252.7998804004327 259.6768534374055,343.6261847359175 c87.9220842347121,74.17481520731258 219.46442731455272,135.48257063376482 323.0625420717328,151.37717389247464 c60.6594224565068,9.082630433548477 185.3861000917961,4.541315216774239 247.40865563721312,-9.839516303010853 z" id="svg_2" fill="#e76767" fill-opacity="1" opacity="1"/>
</g></g></svg>