<svg xmlns="http://www.w3.org/2000/svg" version="1.0" width="900.000000" height="900.000000" preserveAspectRatio="xMidYMid meet"><rect id="backgroundrect" width="100%" height="100%" x="0" y="0" fill="none" stroke="none"/>
<metadata>
Created by potrace 1.16, written by Peter Selinger 2001-2019
</metadata>

<g class="currentLayer" style=""><title>Layer 1</title><g transform="translate(0,900) scale(0.10000000149011612,-0.10000000149011612) " fill="#e76767" stroke="none" id="svg_1" class="selected" fill-opacity="1" opacity="1">
<path d="M507.9060280955579,8000.2956401857255 c0,-6.065489117257916 2991.614845157883,-2957.532493574958 3398.0507854222315,-3351.7892861967234 c82.51881211427671,-80.06445634780447 176.12224078121747,-145.57173881418998 262.33592507971554,-185.6039669880922 c86.21368429849807,-40.03222817390223 104.68804521960479,-43.671521644256984 203.217970132174,-43.671521644256984 c92.37180460553364,0 117.00428583367594,4.85239129380633 166.26924828996056,30.32744558628957 c32.022225596584995,16.98336952832216 66.50769931598423,30.32744558628957 76.36069180724114,30.32744558628957 c9.85299249125692,0 59.117954947541534,32.75364123319274 108.38291740382614,73.99896723054655 c98.52992491256923,80.06445634780447 3507.665326887464,3429.427546897625 3507.665326887464,3446.4109164259467 c0,4.85239129380633 -1737.8215506454396,9.704782587612662 -3861.1414325113064,9.704782587612662 c-2123.3198818658666,0 -3861.1414325113064,-4.85239129380633 -3861.1414325113064,-9.704782587612662 z" id="svg_2" fill="#e76767" fill-opacity="1" opacity="1"/>
<path d="M7233.805027439814,6396.580317582735 c-706.9522112476841,-698.7443463081117 -1290.7420163546567,-1279.8182037414201 -1298.1317607230994,-1291.9491819759355 c-9.85299249125692,-18.196467351773748 194.59660170232422,-224.42309733854282 1291.973640416064,-1305.293258033903 c716.805203738941,-706.0229332488212 1307.9847532143563,-1279.8182037414201 1312.911249459985,-1274.9658124476134 c14.779488736885384,14.557173881418995 6.158120307035577,5137.469282317453 -8.621368429849808,5139.895477964356 c-6.158120307035577,1.2130978234515828 -591.1795494754153,-568.9428791987924 -1298.1317607230994,-1267.6872255069043 z" id="svg_3" fill="#e76767" fill-opacity="1" opacity="1"/>
<path d="M200.00001274377905,5098.565646489541 c0,-2122.92119104027 2.46324812281423,-2559.6364074828402 16.011112798292498,-2559.6364074828402 c20.937609043920958,0 2595.0318973847916,2534.1613531903563 2595.0318973847916,2554.7840161890335 c0,16.98336952832216 -2582.7156567707207,2564.4887987766465 -2599.9583936304202,2564.4887987766465 c-6.158120307035577,0 -11.084616552664038,-994.7402152302981 -11.084616552664038,-2559.6364074828402 z" id="svg_4" fill="#e76767" fill-opacity="1" opacity="1"/>
<path d="M1916.8839543452973,3578.554073704709 c-665.0769931598422,-655.0728246638546 -1246.4035501440007,-1225.2288016860987 -1290.7420163546567,-1267.6872255069043 c-56.6547068247273,-53.37630423186964 -81.28718805286961,-86.12994546506236 -81.28718805286961,-106.75260846373928 l0,-29.11434776283799 l3832.814079098943,2.4261956469031656 c2579.0207845864993,2.4261956469031656 3832.814079098943,7.2785869407094985 3836.5089512831632,15.770271704870577 c4.92649624562846,16.98336952832216 -2591.33702520057,2571.7673857173554 -2613.5062583058984,2571.7673857173554 c-11.084616552664038,0 -100.99317303538345,-80.06445634780447 -200.7547220093598,-177.1122822239311 c-243.86156415860881,-237.76717339651026 -461.85902302766823,-433.07592297221504 -517.2821057909883,-464.61646638195623 c-13.547864675478268,-7.2785869407094985 -59.117954947541534,-36.392934703547496 -99.76154897397632,-64.29418464293389 c-40.643594026434805,-29.11434776283799 -78.82393993005536,-52.16320640841806 -84.98206023709096,-52.16320640841806 c-4.92649624562846,0 -30.790601535177885,-12.13097823451583 -57.88633088613442,-26.68815211593482 c-54.19145870191307,-27.9012499393864 -193.3649776409171,-58.22869552567598 -269.7256694481582,-58.22869552567598 c-126.85727832493288,0 -283.27353412363647,53.37630423186964 -421.2154290012334,143.1455431672868 c-27.095729350956535,18.196467351773748 -67.73932337739134,43.671521644256984 -88.6769324213123,58.22869552567598 c-77.59231586864827,49.737010761514895 -286.9684063078579,236.55407557305864 -532.0615945278738,474.3212489695689 c-98.52992491256923,95.83472805267505 -183.51198514966015,173.47298875357635 -190.90172951810285,173.47298875357635 c-6.158120307035577,0 -556.694075756016,-536.1892379655997 -1220.5394448544514,-1192.4751604529058 z" id="svg_5" fill="#e76767" fill-opacity="1" opacity="1"/>
</g></g></svg>