<svg xmlns="http://www.w3.org/2000/svg" version="1.0" width="1243.9999967217445" height="1183.9999976158142" preserveAspectRatio="xMidYMid meet" style=""><rect id="backgroundrect" width="100%" height="100%" x="0" y="0" fill="none" stroke="none" class="" style=""/>
<metadata>
Created by potrace 1.16, written by Peter Selinger 2001-2019
</metadata>

<g class="currentLayer" style=""><title>Layer 1</title><g transform="translate(0,1024) scale(0.10000000149011612,-0.10000000149011612) " fill="#e76767" stroke="none" id="svg_1" class="selected" fill-opacity="1" opacity="1">
<path d="M2528.7343466868624,9617.089254882041 c-533.3432290603846,-72.79756566524907 -882.950991650206,-227.6368323183185 -1236.3865764581642,-547.7150178623501 c-312.6054811478331,-283.1016442537464 -498.89282909715394,-598.5577621364923 -584.380858635541,-986.8114456844874 c-21.690992569441477,-98.21893780232017 -22.966933308820387,-284.2571611690678 -22.966933308820387,-3530.104176306919 c0,-3245.8470151378515 1.2759407393789104,-3431.885238504599 22.966933308820387,-3530.104176306919 c85.488029538387,-388.253683547995 271.77537748770794,-703.709801430741 584.380858635541,-986.8114456844874 c304.94983671155956,-276.1685427618179 637.9703696894552,-441.40746165278006 1055.202991466359,-524.6046795559218 c119.93842950161758,-23.110338306428275 162.04447390112162,-24.26585522174969 1204.4880579736914,-27.73240596771393 c757.9087991910728,-3.4665507459642413 1097.3090358658628,-1.1555169153214138 1133.0353765684724,8.088618407249896 c33.17445922385167,8.088618407249896 75.28050362335571,33.509990544321 114.83466654410194,67.019981088642 c107.17902210782847,94.75238705635593 107.17902210782847,93.59687014103451 98.2474369321761,781.1294347572757 c-3.827822218136731,323.54473628999585 -8.931585175652373,589.313626813921 -11.483466654410194,590.4691437292424 c-2.551881478757821,2.3110338306428275 -66.34891844770334,-6.9331014919284835 -144.18130354981687,-19.643787560464034 c-303.6738959721807,-48.53171044349938 -833.1893028144285,-19.643787560464034 -1087.1015099508318,58.9313626813921 c-146.7331850285747,46.22067661285655 -284.534784881497,120.17375919342703 -394.26568846808334,212.61511241914013 c-118.66248876223867,99.37445471764158 -177.35576277366854,180.26063879014055 -253.91220713640317,344.3440407657813 c-85.488029538387,184.8827064514262 -137.80159985292232,277.3240596771393 -227.11745160944605,397.49781887056633 c-90.59179249590264,121.32927610874845 -273.0513182270868,292.3457795763177 -348.33182185044257,327.0112870359601 c-122.4903109803754,56.620328850749274 -260.2919108332977,187.19374028206903 -260.2919108332977,247.28061987878255 c0,53.15377810478503 153.11288872546925,86.66376864910603 306.2257774509385,65.86446417332058 c283.2588441421181,-36.97654129028524 616.2793771200137,-250.7471706247468 783.4276139786509,-501.4943412494936 c186.28734794932092,-279.63509350778213 395.5416292074622,-450.65159697535137 645.6260141257287,-528.0712303018861 c75.28050362335571,-24.26585522174969 105.90308136844956,-26.576889052392517 331.7445922385167,-26.576889052392517 c230.94527382758278,1.1555169153214138 259.0159700939188,3.4665507459642413 387.88598477118876,33.509990544321 c76.55644436273462,17.332753729821206 170.976059076774,45.06515969753514 210.53022199752021,60.086879596713516 l72.72862214459789,28.887922883035344 l16.587229611925835,88.97480247974886 c35.72634070260949,192.9713248586761 139.07754059230123,394.0312681246021 269.22349600895006,525.7601964712433 c37.0022814419884,36.97654129028524 65.07297770832443,68.17549800396341 62.52109622956661,70.48653183460624 c-2.551881478757821,2.3110338306428275 -76.55644436273462,12.710686068535551 -164.59635537987944,23.110338306428275 c-477.2018365277125,57.77584576607069 -801.2907843299557,144.43961441517672 -1141.9669617441248,301.589914898889 c-548.6545179329314,253.0582044553896 -854.8802953838699,576.6029407453855 -1057.7548729451166,1111.6072725392 c-61.2451554901877,164.08340197564075 -108.45496284720738,340.87749001981706 -141.62942207105905,535.0043317938146 c-28.07069626633603,164.08340197564075 -40.83010366012513,642.467404918706 -20.415051830062566,793.8401208258113 c52.313570314535326,382.47609897138796 214.35804421565695,724.5091059065264 483.581540224607,1013.3883347368799 l75.28050362335571,80.88618407249896 l-42.10604439950404,115.55169153214138 c-117.38654802285976,329.3223208666029 -104.62714062907065,688.6880815315626 39.55416292074622,1090.8079680634146 c54.86545179329315,154.83926665306944 58.69327401142988,158.30581739903369 223.28962939130932,149.06168207646238 c141.62942207105905,-8.088618407249896 264.1197330514344,-38.132058205606654 501.4447105759118,-123.64030993939127 c261.56785157267666,-93.59687014103451 519.3078809272165,-209.1485616731759 704.3192881371585,-317.7671517133888 c113.55872580472303,-65.86446417332058 160.7685331617427,-87.81928556442745 185.011407209942,-83.19721790314179 c17.863170351304746,2.3110338306428275 123.76625171975431,23.110338306428275 236.04903678509842,46.22067661285655 c432.5439106494506,88.97480247974886 768.1163251061041,117.8627253627842 1255.5256875488478,108.6185900402129 c445.30331804323976,-8.088618407249896 686.4561177858538,-34.66550745964241 1083.273687732695,-119.01824227810562 c102.07525915031283,-21.95482139110686 193.94299238559438,-39.28757512092807 201.59863682186784,-39.28757512092807 c8.931585175652373,0 103.35119988969174,49.68722735882079 210.53022199752021,110.92962387085572 c352.15964406857927,197.59339251996175 773.2200880636196,363.98782832624534 1041.1676433331909,410.2085049391019 c103.35119988969174,17.332753729821206 269.22349600895006,10.399652237892724 284.534784881497,-12.710686068535551 c25.518814787578208,-36.97654129028524 104.62714062907065,-277.3240596771393 136.5256591135434,-414.83057260038754 c28.07069626633603,-121.32927610874845 33.17445922385167,-176.7940880441763 34.45039996323058,-336.2554223585314 c0,-210.3040785884973 -16.587229611925835,-316.61163479806737 -79.10832584149244,-485.3171044349938 l-37.0022814419884,-98.21893780232017 l85.488029538387,-93.59687014103451 c267.9475552695712,-294.6568134069605 421.06044399504043,-620.5125835275992 473.3740143095757,-1001.8331655836657 c20.415051830062566,-151.3727159071052 7.655644436273462,-629.7567188501705 -20.415051830062566,-793.8401208258113 c-86.7639702777659,-507.27192582610064 -261.56785157267666,-897.8366432047385 -529.5154068422478,-1184.404838204449 c-209.2542812581413,-224.17028157235427 -557.5861031085839,-434.4743601608516 -950.5758508372883,-575.447423830064 c-220.7377479125515,-79.73066715717755 -538.4469920179001,-147.90616516114096 -874.0194064745536,-188.34925719739044 c-88.03991101714482,-10.399652237892724 -162.04447390112162,-20.799304475785448 -164.59635537987944,-23.110338306428275 c-2.551881478757821,-2.3110338306428275 25.518814787578208,-32.354473628999585 62.52109622956661,-67.019981088642 c80.38426658087135,-75.1085994958919 102.07525915031283,-102.84100546360582 164.59635537987944,-214.92614624978296 c58.69327401142988,-103.99652237892724 96.97149619279719,-210.3040785884973 125.04219245913322,-351.2771422577098 c17.863170351304746,-90.13031939507027 21.690992569441477,-244.96958604813972 28.07069626633603,-1064.231079011022 c7.655644436273462,-942.9018029022736 7.655644436273462,-960.2345566320948 34.45039996323058,-1005.29971632963 c30.62257774509385,-51.99826118946362 86.7639702777659,-91.28583631039169 163.32041464050053,-113.24065770149855 c39.55416292074622,-10.399652237892724 302.3979552328018,-13.866202983856965 1117.7240876959254,-13.866202983856965 c1195.556472798039,0 1170.0376580104607,-1.1555169153214138 1467.331850285747,86.66376864910603 c304.94983671155956,90.13031939507027 567.7936290236152,239.19200147153265 815.3261324631237,463.3622830438869 c312.6054811478331,284.2571611690678 505.2725327940485,610.1129312897065 583.1049178961621,986.8114456844874 c22.966933308820387,110.92962387085572 24.242874048199297,246.12510296346113 24.242874048199297,3530.104176306919 c0,3283.979073343458 -1.2759407393789104,3419.174552436063 -24.242874048199297,3530.104176306919 c-76.55644436273462,372.07644673349523 -274.3272589664657,706.0208352613838 -583.1049178961621,986.8114456844874 c-341.952118153548,309.6785333061389 -736.2178066216313,487.6281382656366 -1201.9361764949335,544.2484671163859 c-94.41961471403937,10.399652237892724 -7455.321740190973,15.021719899178379 -7536.981947511224,3.4665507459642413 z" id="svg_2" fill="#e76767" fill-opacity="1" opacity="1"/>
<path d="M2896.2052796279886,2251.82443662335 c-38.27822218136731,-19.643787560464034 -29.34663700571494,-83.19721790314179 16.587229611925835,-124.79582685471269 c44.657925878261864,-40.44309203624948 86.7639702777659,-46.22067661285655 117.38654802285976,-15.021719899178379 c40.83010366012513,41.598608951570895 16.587229611925835,108.6185900402129 -51.037629575156416,139.81754675389107 c-33.17445922385167,15.021719899178379 -54.86545179329315,16.177236814499793 -82.93614805962918,0 z" id="svg_3" fill="#e76767" fill-opacity="1" opacity="1"/>
<path d="M3125.8746127161926,1991.8331306760315 c-40.83010366012513,-19.643787560464034 -47.209807357019685,-65.86446417332058 -16.587229611925835,-120.17375919342703 c53.58951105391424,-93.59687014103451 172.2519998161529,-88.97480247974886 172.2519998161529,6.9331014919284835 c0,33.509990544321 -54.86545179329315,120.17375919342703 -76.55644436273462,120.17375919342703 c-5.103762957515642,0 -17.863170351304746,2.3110338306428275 -28.07069626633603,5.777584576607069 c-8.931585175652373,2.3110338306428275 -31.89851848447276,-2.3110338306428275 -51.037629575156416,-12.710686068535551 z" id="svg_4" fill="#e76767" fill-opacity="1" opacity="1"/>
<path d="M3377.234938373838,1692.5542496077856 c-44.657925878261864,-40.44309203624948 -40.83010366012513,-76.26411641121331 16.587229611925835,-125.9513437700341 c72.72862214459789,-64.70894725799917 127.59407393789104,-70.48653183460624 172.2519998161529,-16.177236814499793 c22.966933308820387,27.73240596771393 24.242874048199297,34.66550745964241 8.931585175652373,68.17549800396341 c-19.139111090683656,40.44309203624948 -104.62714062907065,102.84100546360582 -142.90536281043796,102.84100546360582 c-12.759407393789104,0 -38.27822218136731,-12.710686068535551 -54.86545179329315,-28.887922883035344 z" id="svg_5" fill="#e76767" fill-opacity="1" opacity="1"/>
<path d="M3749.8096342724793,1469.5394849507527 c-31.89851848447276,-31.19895671367817 -28.07069626633603,-90.13031939507027 7.655644436273462,-110.92962387085572 c47.209807357019685,-28.887922883035344 146.7331850285747,-48.53171044349938 172.2519998161529,-34.66550745964241 c31.89851848447276,18.48827064514262 56.14139253267206,70.48653183460624 47.209807357019685,98.21893780232017 c-21.690992569441477,60.086879596713516 -181.18358499180528,93.59687014103451 -227.11745160944605,47.376193528177964 z" id="svg_6" fill="#e76767" fill-opacity="1" opacity="1"/>
<path d="M4691.453899934116,1470.695001866074 c-108.45496284720738,-24.26585522174969 -108.45496284720738,-165.23891889096217 0,-165.23891889096217 c65.07297770832443,0 146.7331850285747,33.509990544321 160.7685331617427,64.70894725799917 c14.035348133168014,34.66550745964241 -3.827822218136731,79.73066715717755 -38.27822218136731,95.90790397167734 c-25.518814787578208,12.710686068535551 -76.55644436273462,15.021719899178379 -122.4903109803754,4.622067661285655 z" id="svg_7" fill="#e76767" fill-opacity="1" opacity="1"/>
<path d="M4215.528004145782,1402.5195038621107 c-34.45039996323058,-21.95482139110686 -39.55416292074622,-97.06342088699876 -6.379703696894552,-121.32927610874845 c30.62257774509385,-23.110338306428275 164.59635537987944,-17.332753729821206 196.4948738643522,8.088618407249896 c29.34663700571494,24.26585522174969 31.89851848447276,87.81928556442745 3.827822218136731,113.24065770149855 c-26.79475552695712,25.421372137071103 -155.66477020422707,25.421372137071103 -193.94299238559438,0 z" id="svg_8" fill="#e76767" fill-opacity="1" opacity="1"/>
</g></g></svg>