<svg xmlns="http://www.w3.org/2000/svg" version="1.0" width="980.000000" height="980.000000" preserveAspectRatio="xMidYMid meet"><rect id="backgroundrect" width="100%" height="100%" x="0" y="0" fill="none" stroke="none"/>
<metadata>
Created by potrace 1.16, written by Peter Selinger 2001-2019
</metadata>

<g class="currentLayer" style=""><title>Layer 1</title><g transform="translate(0,980) scale(0.10000000149011612,-0.10000000149011612) " fill="#e76767" stroke="none" id="svg_1" class="selected" fill-opacity="1" opacity="1">
<path d="M4560 9789 c-1035 -75 -1998 -463 -2800 -1128 -150 -123 -501 -475 -622 -621 -881 -1068 -1270 -2403 -1098 -3765 119 -934 501 -1801 1124 -2545 98 -117 370 -393 496 -504 1328 -1166 3158 -1531 4825 -962 895 305 1700 879 2281 1627 540 695 884 1520 993 2384 178 1410 -247 2797 -1185 3865 -112 128 -386 398 -509 501 -763 642 -1665 1026 -2665 1134 -174 19 -664 27 -840 14z m568 -2000 c588 -64 1103 -376 1425 -864 336 -510 409 -1157 197 -1737 -17 -48 -90 -206 -162 -350 -72 -145 -472 -954 -890 -1798 -418 -844 -761 -1536 -762 -1538 -2 -1 -407 813 -900 1809 -652 1318 -908 1844 -937 1928 -109 316 -132 684 -65 1012 154 743 732 1333 1469 1500 198 45 433 59 625 38z" id="svg_2" fill="#e76767" fill-opacity="1" opacity="1"/>
<path d="M4810 6824 c-252 -46 -426 -137 -582 -303 -116 -122 -190 -259 -235 -430 -36 -137 -36 -325 0 -462 58 -222 182 -410 361 -546 83 -63 242 -137 351 -165 127 -32 332 -32 460 0 312 78 572 312 679 613 47 130 60 223 53 376 -9 233 -90 431 -245 604 -117 130 -312 248 -482 289 -82 20 -301 35 -360 24z" id="svg_3" fill="#e76767" fill-opacity="1" opacity="1"/>
</g></g></svg>