<svg xmlns="http://www.w3.org/2000/svg" version="1.0" width="512.000000" height="512.000000" preserveAspectRatio="xMidYMid meet" style=""><rect id="backgroundrect" width="100%" height="100%" x="0" y="0" fill="none" stroke="none"/>


<g class="currentLayer" style=""><title>Layer 1</title><g transform="translate(0,512) scale(0.10000000149011612,-0.10000000149011612) " fill="#e76767" stroke="none" id="svg_1" class="selected" fill-opacity="1" opacity="1">
<path d="M4755 4791 c-27 -10 -556 -214 -1175 -454 -619 -240 -1649 -638 -2290 -886 -652 -253 -1183 -463 -1205 -479 -56 -39 -85 -86 -85 -138 0 -36 6 -49 33 -76 18 -18 55 -45 82 -60 28 -14 310 -110 628 -213 519 -168 582 -186 605 -175 15 6 209 125 432 264 1850 1155 2299 1435 2318 1445 34 18 106 10 110 -12 5 -23 -64 -90 -453 -447 -404 -369 -1247 -1131 -1623 -1465 -62 -55 -114 -107 -117 -115 -2 -8 -25 -264 -51 -568 -43 -515 -45 -554 -30 -577 21 -32 72 -34 111 -3 15 11 167 147 339 300 171 154 320 283 331 288 11 4 28 3 39 -2 18 -10 191 -135 851 -615 201 -147 340 -240 373 -253 101 -38 210 -21 269 42 33 36 69 116 87 194 15 69 174 822 580 2756 132 628 206 999 206 1036 0 78 -39 155 -98 197 -39 27 -53 30 -130 33 -66 2 -99 -2 -137 -17z" id="svg_2" fill="#e76767" fill-opacity="1" opacity="1"/>
</g></g></svg>